<?xml version="1.0" encoding="utf-8"?>
<!-- Generator: Adobe Illustrator 17.0.0, SVG Export Plug-In . SVG Version: 6.00 Build 0)  -->
<!DOCTYPE svg PUBLIC "-//W3C//DTD SVG 1.1//EN" "http://www.w3.org/Graphics/SVG/1.1/DTD/svg11.dtd">
<svg version="1.1" id="Capa_1" xmlns="http://www.w3.org/2000/svg" xmlns:xlink="http://www.w3.org/1999/xlink" x="0px" y="0px"
	 width="65px" height="38.213px" viewBox="23.5 7.821 65 38.213" enable-background="new 23.5 7.821 65 38.213"
	 xml:space="preserve">
<g>
	<path d="M54.633,28.122c0.732-1.735,1.353-3.097,1.863-4.084c0.382-0.732,0.74-1.349,1.075-1.851
		c0.334-0.502,0.74-0.991,1.218-1.469c0.478-0.478,1.027-0.836,1.648-1.075c0.621-0.239,1.313-0.358,2.078-0.358h6.114v4.586
		c0,0.207,0.075,0.386,0.227,0.537c0.151,0.151,0.33,0.227,0.537,0.227c0.223,0,0.406-0.072,0.549-0.215l7.643-7.643
		c0.144-0.143,0.215-0.326,0.215-0.549c0-0.223-0.072-0.406-0.215-0.55l-7.619-7.619c-0.191-0.159-0.383-0.238-0.573-0.238
		c-0.223,0-0.406,0.072-0.55,0.215c-0.143,0.143-0.214,0.326-0.214,0.549v4.585h-6.114c-1.083,0-2.102,0.132-3.058,0.394
		c-0.955,0.263-1.803,0.597-2.544,1.003c-0.74,0.406-1.457,0.951-2.15,1.636c-0.693,0.684-1.282,1.346-1.767,1.982
		c-0.485,0.637-0.995,1.433-1.528,2.388c-0.533,0.955-0.963,1.791-1.29,2.508c-0.327,0.716-0.721,1.6-1.182,2.651
		c-0.733,1.735-1.353,3.097-1.863,4.084c-0.382,0.732-0.74,1.35-1.075,1.851c-0.334,0.502-0.74,0.991-1.218,1.469
		c-0.478,0.478-1.027,0.836-1.648,1.075c-0.621,0.239-1.314,0.358-2.078,0.358h-5.35c-0.223,0-0.406,0.071-0.549,0.215
		C35.072,34.929,35,35.112,35,35.335v4.586c0,0.223,0.072,0.406,0.215,0.55s0.327,0.215,0.549,0.215h5.35
		c1.083,0,2.102-0.132,3.057-0.395c0.955-0.263,1.803-0.597,2.544-1.003c0.74-0.406,1.457-0.951,2.15-1.636
		c0.692-0.684,1.282-1.346,1.767-1.982c0.485-0.637,0.995-1.433,1.528-2.388c0.533-0.955,0.963-1.791,1.29-2.508
		C53.777,30.057,54.171,29.173,54.633,28.122z"/>
	<path d="M35.764,19.285h5.35c0.701,0,1.349,0.115,1.946,0.346c0.597,0.231,1.099,0.509,1.505,0.836
		c0.406,0.327,0.812,0.776,1.218,1.349c0.406,0.573,0.728,1.079,0.967,1.517c0.239,0.438,0.533,1.015,0.884,1.732
		c1.226-2.882,2.317-5.055,3.272-6.52c-2.547-3.583-5.812-5.374-9.792-5.374h-5.35c-0.223,0-0.406,0.072-0.549,0.215
		S35,13.712,35,13.935v4.586c0,0.223,0.072,0.406,0.215,0.549S35.541,19.285,35.764,19.285z"/>
	<path d="M69.966,29.46c-0.191-0.159-0.383-0.238-0.574-0.238c-0.223,0-0.406,0.072-0.549,0.215
		c-0.143,0.143-0.215,0.326-0.215,0.549v4.586h-6.114c-0.701,0-1.35-0.116-1.947-0.347c-0.597-0.231-1.099-0.509-1.505-0.836
		c-0.406-0.326-0.812-0.776-1.218-1.35c-0.406-0.573-0.729-1.079-0.968-1.517c-0.239-0.437-0.533-1.015-0.884-1.731
		c-1.226,2.866-2.309,5.039-3.248,6.52c0.43,0.621,0.876,1.174,1.337,1.66s0.9,0.911,1.314,1.278s0.884,0.685,1.409,0.955
		c0.526,0.271,0.987,0.497,1.386,0.681c0.399,0.183,0.9,0.33,1.505,0.442c0.605,0.111,1.115,0.195,1.528,0.25
		c0.414,0.056,0.979,0.096,1.696,0.12c0.716,0.024,1.297,0.032,1.743,0.024c0.446-0.008,1.091-0.016,1.935-0.024
		s1.521-0.012,2.03-0.012v4.586c0,0.207,0.075,0.386,0.227,0.537c0.151,0.151,0.33,0.227,0.537,0.227
		c0.223,0,0.406-0.072,0.549-0.215l7.643-7.643c0.143-0.143,0.215-0.326,0.215-0.549c0-0.223-0.072-0.406-0.215-0.549L69.966,29.46z
		"/>
</g>
</svg>
