<?xml version="1.0" ?><!DOCTYPE svg  PUBLIC '-//W3C//DTD SVG 1.1//EN'  'http://www.w3.org/Graphics/SVG/1.1/DTD/svg11.dtd'><svg height="32px" style="enable-background:new 0 0 32 32;" version="1.1" viewBox="0 0 32 32" width="32px" xml:space="preserve" xmlns="http://www.w3.org/2000/svg" xmlns:xlink="http://www.w3.org/1999/xlink"><g id="_x32__audio_simple_random"><g><polygon points="24.518,11.643 24.518,14.864 28.852,10.53 24.518,6.196 24.518,9.419 19.943,9.419 19.943,9.434 19.932,9.421     7.995,21.357 3.149,21.357 3.149,23.581 8.907,23.581 8.907,23.572 8.915,23.581 20.854,11.643   "/><polygon points="12.917,15.564 14.489,13.992 8.915,8.419 8.906,8.427 8.906,8.419 3.148,8.419 3.148,10.643 7.994,10.643   "/><polygon points="24.518,20.357 20.854,20.357 17.069,16.572 15.497,18.145 19.932,22.579 19.944,22.566 19.944,22.581     24.518,22.581 24.518,25.804 28.852,21.47 24.518,17.136   "/></g></g></svg>