<?xml version="1.0" encoding="utf-8"?>
<!-- Generator: Adobe Illustrator 17.0.0, SVG Export Plug-In . SVG Version: 6.00 Build 0)  -->
<!DOCTYPE svg PUBLIC "-//W3C//DTD SVG 1.1//EN" "http://www.w3.org/Graphics/SVG/1.1/DTD/svg11.dtd">
<svg version="1.1" id="Layer_1" xmlns="http://www.w3.org/2000/svg" xmlns:xlink="http://www.w3.org/1999/xlink" x="0px" y="0px"
	 width="50px" height="70px" viewBox="0 0 50 70" enable-background="new 0 0 50 70" xml:space="preserve">
<text transform="matrix(1 0 0 1 6.8803 13.1682)" font-family="'AGaramondPro-Bold'" font-size="12">2</text>
<g>
	
		<linearGradient id="SVGID_1_" gradientUnits="userSpaceOnUse" x1="393.0309" y1="-191.0524" x2="393.3054" y2="-191.0524" gradientTransform="matrix(125.5434 0 0 -125.5434 -49329.6016 -23945.3672)">
		<stop  offset="0" style="stop-color:#404040"/>
		<stop  offset="0.0497" style="stop-color:#454646"/>
		<stop  offset="0.2184" style="stop-color:#535456"/>
		<stop  offset="0.3525" style="stop-color:#58595B"/>
		<stop  offset="0.3525" style="stop-color:#535456"/>
		<stop  offset="0.3525" style="stop-color:#393A3B"/>
		<stop  offset="0.3525" style="stop-color:#242525"/>
		<stop  offset="0.3525" style="stop-color:#141414"/>
		<stop  offset="0.3525" style="stop-color:#080809"/>
		<stop  offset="0.3525" style="stop-color:#020202"/>
		<stop  offset="0.3525" style="stop-color:#000000"/>
		<stop  offset="0.44" style="stop-color:#040404"/>
		<stop  offset="0.5241" style="stop-color:#0F0F0F"/>
		<stop  offset="0.5273" style="stop-color:#101010"/>
		<stop  offset="0.8128" style="stop-color:#303030"/>
		<stop  offset="1" style="stop-color:#404040"/>
	</linearGradient>
	<path fill="url(#SVGID_1_)" d="M34.694,36.193c-3.875,0-7.091,2.791-7.701,6.446h-0.606c0-1.99,0-3.543,0-4.736
		c3.65-0.645,6.421-3.795,6.421-7.583c0-4.256-3.495-7.707-7.807-7.707c-4.312,0-7.807,3.451-7.807,7.707
		c0,3.788,2.771,6.939,6.423,7.583c0,1.192,0,2.746,0,4.736H23.01c-0.61-3.655-3.826-6.446-7.702-6.446
		c-4.311,0-7.807,3.451-7.807,7.708c0,4.257,3.497,7.706,7.807,7.706c3.882,0,7.102-2.795,7.705-6.459h0.604c0,0.34,0,0.688,0,1.05
		c0,8.872-4.713,10.465-4.713,10.465l0.746,0.726c0,0,2.89-1.305,5.352-1.305c2.463,0,5.351,1.305,5.351,1.305l0.748-0.726
		c0,0-4.713-1.593-4.713-10.465c0-0.362,0-0.71,0-1.05h0.603c0.605,3.664,3.823,6.459,7.704,6.459c4.312,0,7.806-3.449,7.806-7.706
		C42.5,39.643,39.006,36.193,34.694,36.193z"/>
</g>
<g>
	
		<linearGradient id="SVGID_2_" gradientUnits="userSpaceOnUse" x1="392.9917" y1="-190.8931" x2="393.0388" y2="-190.8931" gradientTransform="matrix(125.5434 0 0 -125.5434 -49329.6016 -23945.3672)">
		<stop  offset="0" style="stop-color:#404040"/>
		<stop  offset="0.0497" style="stop-color:#454646"/>
		<stop  offset="0.2184" style="stop-color:#535456"/>
		<stop  offset="0.3525" style="stop-color:#58595B"/>
		<stop  offset="0.3525" style="stop-color:#535456"/>
		<stop  offset="0.3525" style="stop-color:#393A3B"/>
		<stop  offset="0.3525" style="stop-color:#242525"/>
		<stop  offset="0.3525" style="stop-color:#141414"/>
		<stop  offset="0.3525" style="stop-color:#080809"/>
		<stop  offset="0.3525" style="stop-color:#020202"/>
		<stop  offset="0.3525" style="stop-color:#000000"/>
		<stop  offset="0.44" style="stop-color:#040404"/>
		<stop  offset="0.5241" style="stop-color:#0F0F0F"/>
		<stop  offset="0.5273" style="stop-color:#101010"/>
		<stop  offset="0.8128" style="stop-color:#303030"/>
		<stop  offset="1" style="stop-color:#404040"/>
	</linearGradient>
	<path fill="url(#SVGID_2_)" d="M11.662,19.347c-0.664,0-1.216,0.478-1.32,1.105h-0.104c0-0.341,0-0.607,0-0.812
		c0.626-0.11,1.101-0.651,1.101-1.3c0-0.73-0.599-1.321-1.338-1.321c-0.739,0-1.338,0.592-1.338,1.321c0,0.649,0.475,1.19,1.101,1.3
		c0,0.204,0,0.471,0,0.812H9.659c-0.105-0.627-0.656-1.105-1.32-1.105C7.599,19.347,7,19.939,7,20.669
		c0,0.73,0.599,1.321,1.338,1.321c0.666,0,1.217-0.479,1.321-1.107h0.104c0,0.058,0,0.118,0,0.18c0,1.521-0.808,1.794-0.808,1.794
		l0.128,0.124c0,0,0.495-0.224,0.917-0.224c0.422,0,0.917,0.224,0.917,0.224l0.128-0.124c0,0-0.808-0.273-0.808-1.794
		c0-0.062,0-0.122,0-0.18h0.103c0.104,0.628,0.655,1.107,1.321,1.107c0.739,0,1.338-0.591,1.338-1.321
		C13,19.939,12.401,19.347,11.662,19.347z"/>
</g>
</svg>
