<?xml version="1.0" encoding="utf-8"?>
<!-- Generator: Adobe Illustrator 17.0.0, SVG Export Plug-In . SVG Version: 6.00 Build 0)  -->
<!DOCTYPE svg PUBLIC "-//W3C//DTD SVG 1.1//EN" "http://www.w3.org/Graphics/SVG/1.1/DTD/svg11.dtd">
<svg version="1.1" id="Layer_1" xmlns="http://www.w3.org/2000/svg" xmlns:xlink="http://www.w3.org/1999/xlink" x="0px" y="0px"
	 width="80px" height="15px" viewBox="0 0 80 15" enable-background="new 0 0 80 15" xml:space="preserve">
<circle fill="#F35344" stroke="#FFFFFF" stroke-width="0.25" stroke-miterlimit="10" cx="17.234" cy="7.735" r="7.012"/>
<g>
	<path fill="#F1F2F2" d="M21.068,10.978c0.1,0.232-0.007,0.5-0.238,0.6c-0.232,0.1-0.5-0.006-0.6-0.238
		c-0.441-1.018-1.481-1.677-2.652-1.677c-1.198,0-2.245,0.658-2.668,1.676c-0.073,0.175-0.243,0.282-0.422,0.282
		c-0.059,0-0.118-0.011-0.175-0.035c-0.233-0.097-0.343-0.364-0.247-0.597c0.565-1.36,1.943-2.239,3.512-2.239
		C19.113,8.751,20.483,9.625,21.068,10.978z M13.854,5.446c-0.103-0.179-0.041-0.407,0.138-0.51l1.377-0.791
		c0.179-0.103,0.407-0.041,0.51,0.138c0.103,0.179,0.041,0.407-0.138,0.51l-1.377,0.791C14.185,5.687,13.956,5.625,13.854,5.446z
		 M15.991,5.462c0.257,0.257,0.257,0.674,0,0.931c-0.257,0.257-0.674,0.257-0.931,0c-0.257-0.257-0.257-0.674,0-0.931
		C15.316,5.205,15.733,5.205,15.991,5.462z M18.229,3.227c0.018-0.206,0.2-0.357,0.405-0.339l1.582,0.142
		c0.206,0.018,0.357,0.2,0.339,0.406c-0.018,0.206-0.2,0.357-0.406,0.339l-1.582-0.142C18.362,3.614,18.21,3.432,18.229,3.227z
		 M19.918,5.451c0.257,0.257,0.257,0.674,0,0.931c-0.257,0.257-0.675,0.257-0.931,0c-0.257-0.257-0.257-0.674,0-0.931
		C19.244,5.194,19.66,5.194,19.918,5.451z"/>
</g>
<path fill="#F35344" d="M71,8.079C71,11.349,68.766,14,66.01,14H30.99C28.234,14,26,11.349,26,8.079V8.056
	C26,4.786,28.234,2,30.99,2h35.02C68.766,2,71,4.786,71,8.056V8.079z"/>
<text transform="matrix(1 0 0 1 35.1798 11.461)"><tspan x="0" y="0" fill="#FFFFFF" font-family="'TFFFranklinGothicDemi'" font-size="9.6785">PAS</tspan><tspan x="18.006" y="0" fill="#FFFFFF" font-family="'TFFFranklinGothicDemi'" font-size="9.6785">S</tspan><tspan x="23.427" y="0" fill="#FFFFFF" font-family="'TFFFranklinGothicDemi'" font-size="9.6785"> !</tspan></text>
</svg>
