<?xml version="1.0" encoding="utf-8"?>
<!-- Generator: Adobe Illustrator 17.0.0, SVG Export Plug-In . SVG Version: 6.00 Build 0)  -->
<!DOCTYPE svg PUBLIC "-//W3C//DTD SVG 1.1//EN" "http://www.w3.org/Graphics/SVG/1.1/DTD/svg11.dtd">
<svg version="1.1" id="Layer_1" xmlns="http://www.w3.org/2000/svg" xmlns:xlink="http://www.w3.org/1999/xlink" x="0px" y="0px"
	 width="80px" height="15px" viewBox="0 0 80 15" enable-background="new 0 0 80 15" xml:space="preserve">
<path fill="#7F3F98" d="M70,8.079C70,11.349,67.766,14,65.01,14H29.99C27.234,14,25,11.349,25,8.079V8.056
	C25,4.786,27.234,2,29.99,2h35.02C67.766,2,70,4.786,70,8.056V8.079z"/>
<text transform="matrix(1 0 0 1 35.0085 10.7978)" fill="#FFFFFF" font-family="'TFFFranklinGothicDemi'" font-size="9.6785">Losing</text>
<circle fill="#7F3F98" stroke="#FFFFFF" stroke-width="0.25" stroke-miterlimit="10" cx="15.429" cy="6.992" r="7.021"/>
<g>
	<path fill="#F1F2F2" d="M16.886,7.716c1.814,0,3.433,1.033,4.124,2.632c0.118,0.274-0.007,0.591-0.281,0.709
		c-0.273,0.119-0.591-0.007-0.709-0.281c-0.521-1.203-1.75-1.981-3.134-1.981c-1.415,0-2.653,0.777-3.152,1.979
		c-0.086,0.208-0.287,0.333-0.498,0.333c-0.069,0-0.139-0.013-0.207-0.041c-0.275-0.115-0.406-0.43-0.291-0.705
		C13.405,8.754,15.033,7.716,16.886,7.716z M13.136,3.992c0-0.616,0.5-1.115,1.115-1.115c0.616,0,1.115,0.5,1.115,1.115
		c0,0.616-0.499,1.116-1.115,1.116C13.635,5.108,13.136,4.608,13.136,3.992z M18.193,3.992c0-0.616,0.5-1.115,1.116-1.115
		c0.616,0,1.115,0.5,1.115,1.115c0,0.616-0.5,1.116-1.115,1.116C18.694,5.108,18.193,4.608,18.193,3.992z M10.86,5.683
		c0.427-0.447,1.529-0.414,1.529-0.414c-0.284,0.412-0.342,0.754-0.342,0.754C11.979,6.41,11.769,6.63,11.769,6.63
		c-0.461,0.483-0.937,0.02-0.937,0.02C10.363,6.202,10.86,5.683,10.86,5.683z M10.933,8.493c0.297-0.311,1.064-0.288,1.064-0.288
		c-0.198,0.287-0.238,0.525-0.238,0.525C11.712,9,11.566,9.153,11.566,9.153c-0.321,0.336-0.653,0.014-0.653,0.014
		C10.587,8.855,10.933,8.493,10.933,8.493z"/>
</g>
</svg>
