<?xml version="1.0" encoding="utf-8"?>
<!-- Generator: Adobe Illustrator 17.0.0, SVG Export Plug-In . SVG Version: 6.00 Build 0)  -->
<!DOCTYPE svg PUBLIC "-//W3C//DTD SVG 1.1//EN" "http://www.w3.org/Graphics/SVG/1.1/DTD/svg11.dtd">
<svg version="1.1" id="Layer_1" xmlns="http://www.w3.org/2000/svg" xmlns:xlink="http://www.w3.org/1999/xlink" x="0px" y="0px"
	 width="50px" height="70px" viewBox="0 0 50 70" enable-background="new 0 0 50 70" xml:space="preserve">
<text transform="matrix(1 0 0 1 6.8801 13.1682)" fill="#EF0F0F" font-family="'AGaramondPro-Bold'" font-size="12">3</text>
<g>
	
		<linearGradient id="SVGID_1_" gradientUnits="userSpaceOnUse" x1="394.916" y1="-191.0574" x2="395.1738" y2="-191.0574" gradientTransform="matrix(133.7469 0 0 -133.7469 -52805.9688 -25511.3398)">
		<stop  offset="0" style="stop-color:#EF4136"/>
		<stop  offset="0.0636" style="stop-color:#F42F37"/>
		<stop  offset="0.1728" style="stop-color:#FA1537"/>
		<stop  offset="0.2715" style="stop-color:#FE0538"/>
		<stop  offset="0.3499" style="stop-color:#FF0038"/>
		<stop  offset="0.3499" style="stop-color:#FB0037"/>
		<stop  offset="0.3502" style="stop-color:#D7002A"/>
		<stop  offset="0.3506" style="stop-color:#B8001F"/>
		<stop  offset="0.351" style="stop-color:#9C0015"/>
		<stop  offset="0.3515" style="stop-color:#86000D"/>
		<stop  offset="0.352" style="stop-color:#750007"/>
		<stop  offset="0.3527" style="stop-color:#6A0003"/>
		<stop  offset="0.3536" style="stop-color:#630001"/>
		<stop  offset="0.3562" style="stop-color:#610000"/>
		<stop  offset="0.4184" style="stop-color:#650000"/>
		<stop  offset="0.4781" style="stop-color:#700000"/>
		<stop  offset="0.5273" style="stop-color:#800000"/>
		<stop  offset="0.7511" style="stop-color:#C20000"/>
		<stop  offset="0.9158" style="stop-color:#EC0000"/>
		<stop  offset="1" style="stop-color:#FC0000"/>
	</linearGradient>
	<path fill="url(#SVGID_1_)" d="M25,57.641c7.229-9.755,14.736-15.964,14.736-15.964c1.765-1.682,2.819-4.054,2.762-6.611
		c-0.097-4.246-3.232-7.846-7.469-8.574c-4.239-0.73-8.483,1.61-10.028,5.572c-1.546-3.962-5.79-6.302-10.029-5.572
		c-4.238,0.729-7.373,4.328-7.469,8.574c-0.059,2.557,0.995,4.928,2.761,6.611C10.263,41.676,17.769,47.885,25,57.641z"/>
</g>
<g>
	
		<linearGradient id="SVGID_2_" gradientUnits="userSpaceOnUse" x1="394.8793" y1="-190.8929" x2="394.9235" y2="-190.8929" gradientTransform="matrix(133.7469 0 0 -133.7469 -52805.9688 -25511.3398)">
		<stop  offset="0" style="stop-color:#EF4136"/>
		<stop  offset="0.0636" style="stop-color:#F42F37"/>
		<stop  offset="0.1728" style="stop-color:#FA1537"/>
		<stop  offset="0.2715" style="stop-color:#FE0538"/>
		<stop  offset="0.3499" style="stop-color:#FF0038"/>
		<stop  offset="0.3499" style="stop-color:#FB0037"/>
		<stop  offset="0.3502" style="stop-color:#D7002A"/>
		<stop  offset="0.3506" style="stop-color:#B8001F"/>
		<stop  offset="0.351" style="stop-color:#9C0015"/>
		<stop  offset="0.3515" style="stop-color:#86000D"/>
		<stop  offset="0.352" style="stop-color:#750007"/>
		<stop  offset="0.3527" style="stop-color:#6A0003"/>
		<stop  offset="0.3536" style="stop-color:#630001"/>
		<stop  offset="0.3562" style="stop-color:#610000"/>
		<stop  offset="0.4184" style="stop-color:#650000"/>
		<stop  offset="0.4781" style="stop-color:#700000"/>
		<stop  offset="0.5273" style="stop-color:#800000"/>
		<stop  offset="0.7511" style="stop-color:#C20000"/>
		<stop  offset="0.9158" style="stop-color:#EC0000"/>
		<stop  offset="1" style="stop-color:#FC0000"/>
	</linearGradient>
	<path fill="url(#SVGID_2_)" d="M10,22.681c1.239-1.672,2.526-2.737,2.526-2.737c0.303-0.288,0.483-0.695,0.474-1.133
		c-0.017-0.728-0.554-1.345-1.28-1.47c-0.727-0.125-1.454,0.276-1.719,0.955c-0.265-0.679-0.993-1.08-1.719-0.955
		c-0.726,0.125-1.264,0.742-1.28,1.47c-0.01,0.438,0.171,0.845,0.473,1.133C7.474,19.945,8.76,21.009,10,22.681z"/>
</g>
</svg>
