<?xml version="1.0" encoding="utf-8"?>
<!-- Generator: Adobe Illustrator 17.0.0, SVG Export Plug-In . SVG Version: 6.00 Build 0)  -->
<!DOCTYPE svg PUBLIC "-//W3C//DTD SVG 1.1//EN" "http://www.w3.org/Graphics/SVG/1.1/DTD/svg11.dtd">
<svg version="1.1" id="Layer_1" xmlns="http://www.w3.org/2000/svg" xmlns:xlink="http://www.w3.org/1999/xlink" x="0px" y="0px"
	 width="50px" height="70px" viewBox="0 0 50 70" enable-background="new 0 0 50 70" xml:space="preserve">
<text transform="matrix(1 0 0 1 6.8801 13.1682)" font-family="'AGaramondPro-Bold'" font-size="12">6</text>
<g>
	<g>
		
			<linearGradient id="SVGID_1_" gradientUnits="userSpaceOnUse" x1="293.8262" y1="-339.9995" x2="328.2939" y2="-339.9995" gradientTransform="matrix(1 0 0 -1 -281 -300)">
			<stop  offset="0" style="stop-color:#404040"/>
			<stop  offset="0.0126" style="stop-color:#434343"/>
			<stop  offset="0.0823" style="stop-color:#4F5051"/>
			<stop  offset="0.1704" style="stop-color:#565759"/>
			<stop  offset="0.3367" style="stop-color:#58595B"/>
			<stop  offset="0.3367" style="stop-color:#535456"/>
			<stop  offset="0.3369" style="stop-color:#393A3B"/>
			<stop  offset="0.3372" style="stop-color:#242525"/>
			<stop  offset="0.3375" style="stop-color:#141414"/>
			<stop  offset="0.3379" style="stop-color:#080809"/>
			<stop  offset="0.3385" style="stop-color:#020202"/>
			<stop  offset="0.34" style="stop-color:#000000"/>
			<stop  offset="0.4337" style="stop-color:#040404"/>
			<stop  offset="0.5239" style="stop-color:#0F0F0F"/>
			<stop  offset="0.5273" style="stop-color:#101010"/>
			<stop  offset="0.8128" style="stop-color:#303030"/>
			<stop  offset="1" style="stop-color:#404040"/>
		</linearGradient>
		<path fill="url(#SVGID_1_)" d="M39.736,36.81c0,0-7.505-6.212-14.735-15.966C17.769,30.599,10.264,36.81,10.264,36.81
			c-1.766,1.68-2.82,4.053-2.762,6.61c0.095,4.245,3.232,7.845,7.47,8.574c3.189,0.548,6.382-0.642,8.428-2.955
			c-0.867,6.432-4.092,9.407-4.092,9.407l0.731,0.709c0,0,2.519-1.274,4.927-1.274c2.407,0,4.927,1.274,4.927,1.274l0.731-0.709
			c0,0-3.259-3.006-4.105-9.501c2.041,2.374,5.278,3.605,8.51,3.049c4.238-0.729,7.373-4.329,7.469-8.574
			C42.556,40.863,41.502,38.49,39.736,36.81z"/>
	</g>
	<g>
		
			<linearGradient id="SVGID_2_" gradientUnits="userSpaceOnUse" x1="400.3698" y1="255.4318" x2="400.6382" y2="255.4318" gradientTransform="matrix(128.4276 0 0 128.4276 -51405.7109 -32764.498)">
			<stop  offset="0" style="stop-color:#404040"/>
			<stop  offset="0.0497" style="stop-color:#454646"/>
			<stop  offset="0.2184" style="stop-color:#535456"/>
			<stop  offset="0.3525" style="stop-color:#58595B"/>
			<stop  offset="0.3525" style="stop-color:#535456"/>
			<stop  offset="0.3525" style="stop-color:#393A3B"/>
			<stop  offset="0.3525" style="stop-color:#242525"/>
			<stop  offset="0.3525" style="stop-color:#141414"/>
			<stop  offset="0.3525" style="stop-color:#080809"/>
			<stop  offset="0.3525" style="stop-color:#020202"/>
			<stop  offset="0.3525" style="stop-color:#000000"/>
			<stop  offset="0.44" style="stop-color:#040404"/>
			<stop  offset="0.5241" style="stop-color:#0F0F0F"/>
			<stop  offset="0.5273" style="stop-color:#101010"/>
			<stop  offset="0.8128" style="stop-color:#303030"/>
			<stop  offset="1" style="stop-color:#404040"/>
		</linearGradient>
		<path fill="url(#SVGID_2_)" d="M39.736,36.81c0,0-7.505-6.212-14.735-15.966C17.769,30.599,10.264,36.81,10.264,36.81
			c-1.766,1.68-2.82,4.053-2.762,6.61c0.095,4.245,3.232,7.845,7.47,8.574c3.189,0.548,6.382-0.642,8.428-2.955
			c-0.867,6.432-4.092,9.407-4.092,9.407l0.731,0.709c0,0,2.519-1.274,4.927-1.274c2.407,0,4.927,1.274,4.927,1.274l0.731-0.709
			c0,0-3.259-3.006-4.105-9.501c2.041,2.374,5.278,3.605,8.51,3.049c4.238-0.729,7.373-4.329,7.469-8.574
			C42.556,40.863,41.502,38.49,39.736,36.81z"/>
	</g>
</g>
<g>
	<g>
		
			<linearGradient id="SVGID_3_" gradientUnits="userSpaceOnUse" x1="288.9131" y1="-319.9995" x2="294.8218" y2="-319.9995" gradientTransform="matrix(1 0 0 -1 -281 -300)">
			<stop  offset="0" style="stop-color:#404040"/>
			<stop  offset="0.0126" style="stop-color:#434343"/>
			<stop  offset="0.0823" style="stop-color:#4F5051"/>
			<stop  offset="0.1704" style="stop-color:#565759"/>
			<stop  offset="0.3367" style="stop-color:#58595B"/>
			<stop  offset="0.3367" style="stop-color:#535456"/>
			<stop  offset="0.3369" style="stop-color:#393A3B"/>
			<stop  offset="0.3372" style="stop-color:#242525"/>
			<stop  offset="0.3375" style="stop-color:#141414"/>
			<stop  offset="0.3379" style="stop-color:#080809"/>
			<stop  offset="0.3385" style="stop-color:#020202"/>
			<stop  offset="0.34" style="stop-color:#000000"/>
			<stop  offset="0.4337" style="stop-color:#040404"/>
			<stop  offset="0.5239" style="stop-color:#0F0F0F"/>
			<stop  offset="0.5273" style="stop-color:#101010"/>
			<stop  offset="0.8128" style="stop-color:#303030"/>
			<stop  offset="1" style="stop-color:#404040"/>
		</linearGradient>
		<path fill="url(#SVGID_3_)" d="M12.526,19.453c0,0-1.287-1.065-2.526-2.737c-1.24,1.672-2.526,2.737-2.526,2.737
			C7.171,19.741,6.99,20.148,7,20.586c0.016,0.728,0.554,1.345,1.281,1.47c0.547,0.094,1.094-0.11,1.445-0.507
			c-0.149,1.103-0.701,1.613-0.701,1.613l0.125,0.121c0,0,0.432-0.218,0.845-0.218s0.845,0.218,0.845,0.218l0.125-0.121
			c0,0-0.559-0.515-0.704-1.629c0.35,0.407,0.905,0.618,1.459,0.523c0.727-0.125,1.264-0.742,1.28-1.47
			C13.01,20.148,12.829,19.741,12.526,19.453z"/>
	</g>
	<g>
		
			<linearGradient id="SVGID_4_" gradientUnits="userSpaceOnUse" x1="400.3316" y1="255.2761" x2="400.3776" y2="255.2761" gradientTransform="matrix(128.4276 0 0 128.4276 -51405.7109 -32764.498)">
			<stop  offset="0" style="stop-color:#404040"/>
			<stop  offset="0.0497" style="stop-color:#454646"/>
			<stop  offset="0.2184" style="stop-color:#535456"/>
			<stop  offset="0.3525" style="stop-color:#58595B"/>
			<stop  offset="0.3525" style="stop-color:#535456"/>
			<stop  offset="0.3525" style="stop-color:#393A3B"/>
			<stop  offset="0.3525" style="stop-color:#242525"/>
			<stop  offset="0.3525" style="stop-color:#141414"/>
			<stop  offset="0.3525" style="stop-color:#080809"/>
			<stop  offset="0.3525" style="stop-color:#020202"/>
			<stop  offset="0.3525" style="stop-color:#000000"/>
			<stop  offset="0.44" style="stop-color:#040404"/>
			<stop  offset="0.5241" style="stop-color:#0F0F0F"/>
			<stop  offset="0.5273" style="stop-color:#101010"/>
			<stop  offset="0.8128" style="stop-color:#303030"/>
			<stop  offset="1" style="stop-color:#404040"/>
		</linearGradient>
		<path fill="url(#SVGID_4_)" d="M12.526,19.453c0,0-1.287-1.065-2.526-2.737c-1.24,1.672-2.526,2.737-2.526,2.737
			C7.171,19.741,6.99,20.148,7,20.586c0.016,0.728,0.554,1.345,1.281,1.47c0.547,0.094,1.094-0.11,1.445-0.507
			c-0.149,1.103-0.701,1.613-0.701,1.613l0.125,0.121c0,0,0.432-0.218,0.845-0.218s0.845,0.218,0.845,0.218l0.125-0.121
			c0,0-0.559-0.515-0.704-1.629c0.35,0.407,0.905,0.618,1.459,0.523c0.727-0.125,1.264-0.742,1.28-1.47
			C13.01,20.148,12.829,19.741,12.526,19.453z"/>
	</g>
</g>
</svg>
