<?xml version="1.0" encoding="utf-8"?>
<!-- Generator: Adobe Illustrator 17.0.0, SVG Export Plug-In . SVG Version: 6.00 Build 0)  -->
<!DOCTYPE svg PUBLIC "-//W3C//DTD SVG 1.1//EN" "http://www.w3.org/Graphics/SVG/1.1/DTD/svg11.dtd">
<svg version="1.1" id="Layer_1" xmlns="http://www.w3.org/2000/svg" xmlns:xlink="http://www.w3.org/1999/xlink" x="0px" y="0px"
	 width="50px" height="70px" viewBox="0 0 50 70" enable-background="new 0 0 50 70" xml:space="preserve">
<rect fill-rule="evenodd" clip-rule="evenodd" fill="#E6E7E8" width="50" height="70"/>
<path fill-rule="evenodd" clip-rule="evenodd" fill="#603913" d="M47,63c0,2.209-1.791,4-4,4H7c-2.209,0-4-1.791-4-4V7
	c0-2.209,1.791-4,4-4h36c2.209,0,4,1.791,4,4V63z"/>
<radialGradient id="SVGID_1_" cx="25" cy="35" r="26.4764" gradientTransform="matrix(1 0 0 2 0 -35)" gradientUnits="userSpaceOnUse">
	<stop  offset="0" style="stop-color:#C5FFAA"/>
	<stop  offset="0.1683" style="stop-color:#C1FCAB;stop-opacity:0.9327"/>
	<stop  offset="0.3259" style="stop-color:#B6F4AD;stop-opacity:0.8696"/>
	<stop  offset="0.4793" style="stop-color:#A3E5B0;stop-opacity:0.8083"/>
	<stop  offset="0.6301" style="stop-color:#88D1B5;stop-opacity:0.748"/>
	<stop  offset="0.779" style="stop-color:#66B6BB;stop-opacity:0.6884"/>
	<stop  offset="0.9246" style="stop-color:#3D97C2;stop-opacity:0.6302"/>
	<stop  offset="1" style="stop-color:#2484C6;stop-opacity:0.6"/>
</radialGradient>
<path fill-rule="evenodd" clip-rule="evenodd" fill="url(#SVGID_1_)" d="M46,62c0,2.209-1.791,4-4,4H8c-2.209,0-4-1.791-4-4V8
	c0-2.209,1.791-4,4-4h34c2.209,0,4,1.791,4,4V62z"/>
</svg>
