<?xml version="1.0" encoding="utf-8"?>
<!-- Generator: Adobe Illustrator 17.0.0, SVG Export Plug-In . SVG Version: 6.00 Build 0)  -->
<!DOCTYPE svg PUBLIC "-//W3C//DTD SVG 1.1//EN" "http://www.w3.org/Graphics/SVG/1.1/DTD/svg11.dtd">
<svg version="1.1" id="SemiBold" xmlns="http://www.w3.org/2000/svg" xmlns:xlink="http://www.w3.org/1999/xlink" x="0px" y="0px"
	 width="107.167px" height="38.167px" viewBox="0 0 107.167 38.167" enable-background="new 0 0 107.167 38.167"
	 xml:space="preserve">
<path stroke="#FFFFFF" stroke-width="1.5" stroke-miterlimit="10" d="M105.548,31.812c0,3.155-2.318,5.116-5.47,5.116H7.405
	c-3.154,0-5.711-2.559-5.711-5.714V7.078c0-3.155,2.557-5.713,5.711-5.713h92.673c3.153,0,5.47,2.558,5.47,5.713V31.812z"/>
<g>
	<g>
		<path fill="#FFFFFF" d="M72.668,26.892l-0.78,0.736c-0.18,0.099-0.359,0.214-0.538,0.296c-0.542,0.246-1.092,0.308-1.582,0.308
			c-0.521,0-1.337-0.034-2.17-0.636c-1.157-0.815-1.663-2.216-1.663-3.437c0-2.528,2.058-3.767,3.736-3.767
			c0.587,0,1.189,0.147,1.679,0.457c0.814,0.538,1.025,1.238,1.142,1.614l-3.833,1.549l-1.255,0.098
			c0.406,2.072,1.808,3.278,3.358,3.278c0.774,0,1.348-0.252,1.875-0.513C72.637,26.872,72.743,26.817,72.668,26.892z
			 M70.355,22.769c0.311-0.113,0.473-0.211,0.473-0.438c0-0.651-0.737-1.403-1.616-1.403c-0.652,0-1.874,0.507-1.874,2.269
			c0,0.275,0.033,0.568,0.049,0.861L70.355,22.769z"/>
		<path fill="#FFFFFF" d="M64.654,26.766c0,0.634,0.113,0.732,0.649,0.782c0.279,0.033,0.558,0.048,0.833,0.08l-0.603,0.359H62.66
			c0.377-0.489,0.442-0.537,0.442-0.863V26.76l-0.006-9.693h-1.269l1.221-0.588h2.332c-0.505,0.293-0.656,0.471-0.721,1.041
			L64.654,26.766z"/>
		<path fill="#FFFFFF" d="M60.198,21.191c0.374,0.308,1.155,0.961,1.155,2.2c0,1.207-0.681,1.776-1.367,2.315
			c-0.21,0.212-0.457,0.442-0.457,0.798c0,0.36,0.246,0.556,0.424,0.702l0.589,0.455c0.716,0.604,1.369,1.159,1.369,2.284
			c0,1.534-1.484,3.08-4.289,3.08c-2.362,0-3.505-1.125-3.505-2.331c0-0.587,0.292-1.419,1.256-1.988
			c1.011-0.618,2.38-0.701,3.113-0.749c-0.229-0.296-0.49-0.605-0.49-1.111c0-0.276,0.083-0.441,0.163-0.636
			c-0.178,0.017-0.358,0.034-0.521,0.034c-1.729,0-2.707-1.29-2.707-2.562c0-0.75,0.342-1.582,1.045-2.185
			c0.93-0.765,2.038-0.897,2.919-0.897h3.36l-1.045,0.59H60.198z M59.043,28.428c-0.133-0.017-0.214-0.017-0.375-0.017
			c-0.148,0-1.029,0.032-1.711,0.261c-0.361,0.132-1.404,0.522-1.404,1.68c0,1.155,1.126,1.989,2.869,1.989
			c1.565,0,2.396-0.75,2.396-1.76C60.818,29.749,60.28,29.31,59.043,28.428z M59.512,25.33c0.377-0.376,0.41-0.896,0.41-1.191
			c0-1.172-0.699-2.999-2.054-2.999c-0.423,0-0.881,0.212-1.141,0.54c-0.276,0.34-0.358,0.78-0.358,1.204
			c0,1.092,0.636,2.903,2.037,2.903C58.814,25.787,59.254,25.589,59.512,25.33z"/>
		<path fill="#FFFFFF" d="M50.09,28.198c-2.592,0-3.978-2.018-3.978-3.845c0-2.135,1.743-3.962,4.223-3.962
			c2.397,0,3.898,1.876,3.898,3.847C54.232,26.161,52.749,28.198,50.09,28.198z M52.129,26.878c0.394-0.522,0.49-1.173,0.49-1.808
			c0-1.436-0.684-4.174-2.706-4.174c-0.538,0-1.08,0.21-1.47,0.553c-0.637,0.57-0.75,1.287-0.75,1.991
			c0,1.611,0.796,4.268,2.772,4.268C51.102,27.708,51.753,27.399,52.129,26.878z"/>
		<path fill="#FFFFFF" d="M41.413,28.198c-2.592,0-3.976-2.018-3.976-3.845c0-2.135,1.744-3.962,4.222-3.962
			c2.395,0,3.895,1.876,3.895,3.847C45.554,26.161,44.072,28.198,41.413,28.198z M43.452,26.878
			c0.391-0.522,0.489-1.173,0.489-1.808c0-1.436-0.686-4.174-2.706-4.174c-0.54,0-1.075,0.21-1.467,0.553
			c-0.638,0.57-0.751,1.287-0.751,1.991c0,1.611,0.799,4.268,2.772,4.268C42.426,27.708,43.076,27.399,43.452,26.878z"/>
		<path fill="#FFFFFF" d="M36.401,27.632l-2.186,0.5c-0.886,0.14-1.681,0.263-2.523,0.263c-4.216,0-5.822-3.104-5.822-5.532
			c0-2.966,2.276-5.716,6.174-5.716c0.825,0,1.618,0.121,2.341,0.318c1.146,0.322,1.681,0.719,2.016,0.951l-1.27,1.206l-0.536,0.12
			l0.382-0.609c-0.517-0.505-1.467-1.437-3.271-1.437c-2.411,0-4.231,1.833-4.231,4.509c0,2.874,2.077,5.578,5.408,5.578
			c0.979,0,1.483-0.197,1.94-0.38v-2.464l-2.308,0.124l1.223-0.657h3.239l-0.396,0.381c-0.107,0.091-0.121,0.122-0.151,0.243
			c-0.016,0.139-0.031,0.582-0.031,0.737V27.632z"/>
	</g>
	<g>
		<path fill="#FFFFFF" d="M77.367,26.961v4.153h-0.825V20.548h0.825v1.203c0.537-0.778,1.519-1.394,2.659-1.394
			c2.045,0,3.423,1.551,3.423,4.007c0,2.439-1.378,4.023-3.423,4.023C78.95,28.387,77.986,27.832,77.367,26.961z M82.563,24.364
			c0-1.851-0.965-3.263-2.676-3.263c-1.063,0-2.078,0.835-2.52,1.563v3.382c0.442,0.729,1.457,1.595,2.52,1.595
			C81.598,27.641,82.563,26.217,82.563,24.364z"/>
		<path fill="#FFFFFF" d="M84.575,28.197V17.63H85.4v10.567H84.575z"/>
		<path fill="#FFFFFF" d="M94.654,30.431c0.176,0.078,0.477,0.127,0.668,0.127c0.504,0,0.855-0.206,1.171-0.935l0.602-1.363
			l-3.249-7.713h0.92l2.787,6.684l2.76-6.684h0.933l-3.962,9.331c-0.411,0.962-1.058,1.424-1.947,1.424
			c-0.267,0-0.618-0.048-0.824-0.111L94.654,30.431z"/>
		<path fill="#FFFFFF" d="M92.245,28.174c-0.055-0.265-0.097-0.499-0.127-0.694c-0.025-0.195-0.04-0.394-0.04-0.596
			c-0.283,0.415-0.684,0.761-1.195,1.033c-0.512,0.274-0.998,0.408-1.666,0.408c-0.804,0-1.427-0.198-1.872-0.599
			c-0.444-0.401-0.667-0.943-0.667-1.63c0-0.686,0.323-1.242,0.968-1.668c0.644-0.427,1.478-0.64,2.509-0.64h1.924v-0.951
			c0-0.547-0.187-0.978-0.559-1.29c-0.374-0.312-0.899-0.47-1.579-0.47c-0.622,0-1.126,0.144-1.51,0.426
			c-0.381,0.287-0.572,0.643-0.572,1.071h-0.844l-0.017-0.041c-0.031-0.578,0.234-1.085,0.796-1.522
			c0.559-0.437,1.292-0.657,2.194-0.657c0.899,0,1.626,0.217,2.175,0.648c0.548,0.427,0.823,1.046,0.823,1.853v3.774
			c0,0.271,0.013,0.533,0.047,0.788c0.035,0.256,0.09,0.511,0.164,0.757H92.245z M89.318,27.573c0.701,0,1.204-0.157,1.719-0.466
			c0.511-0.308,0.859-0.71,1.041-1.196v-1.469h-1.933c-0.738,0-1.349,0.163-1.83,0.493c-0.482,0.328-0.726,0.726-0.726,1.188
			c0,0.436,0.155,0.785,0.462,1.049C88.36,27.44,88.781,27.573,89.318,27.573z"/>
	</g>
</g>
<g>
	<polygon fill="none" points="15.101,23.933 17.746,21.287 17.745,21.287 15.101,23.933 6.657,15.49 6.656,15.49 15.101,23.934 
		6.643,32.392 6.643,32.392 15.101,23.934 17.758,26.592 17.759,26.592 	"/>
	
		<linearGradient id="SVGID_1_" gradientUnits="userSpaceOnUse" x1="488.8857" y1="-447.4279" x2="477.7366" y2="-454.4054" gradientTransform="matrix(0.7071 0.7071 -0.7071 0.7071 -648.7468 -6.0613)">
		<stop  offset="0" style="stop-color:#D6FFA1"/>
		<stop  offset="0.3264" style="stop-color:#93E2A7"/>
		<stop  offset="1" style="stop-color:#00A3B5"/>
	</linearGradient>
	<path fill="url(#SVGID_1_)" d="M17.745,21.287L7.437,15.619c-0.292-0.16-0.562-0.197-0.78-0.129l8.444,8.443L17.745,21.287z"/>
	
		<linearGradient id="SVGID_2_" gradientUnits="userSpaceOnUse" x1="482.4034" y1="-453.3883" x2="496.8587" y2="-449.6095" gradientTransform="matrix(0.7071 0.7071 -0.7071 0.7071 -648.7468 -6.0613)">
		<stop  offset="0" style="stop-color:#FF177B"/>
		<stop  offset="0.6721" style="stop-color:#FFA976"/>
		<stop  offset="1" style="stop-color:#FFEC73"/>
	</linearGradient>
	<path fill="url(#SVGID_2_)" d="M17.759,26.592l3.519-1.935c0.714-0.394,0.714-1.035,0-1.427l-3.532-1.942l-2.645,2.646
		L17.759,26.592z"/>
	
		<linearGradient id="SVGID_3_" gradientUnits="userSpaceOnUse" x1="490.4732" y1="-442.1352" x2="474.7982" y2="-451.3574" gradientTransform="matrix(0.7071 0.7071 -0.7071 0.7071 -648.7468 -6.0613)">
		<stop  offset="0" style="stop-color:#63FFD4"/>
		<stop  offset="0.4854" style="stop-color:#32A0BA"/>
		<stop  offset="0.8349" style="stop-color:#1262A9"/>
		<stop  offset="1" style="stop-color:#064AA2"/>
	</linearGradient>
	<path fill="url(#SVGID_3_)" d="M6.656,15.49c-0.314,0.098-0.517,0.416-0.517,0.896L6.142,31.5c0,0.475,0.197,0.787,0.501,0.892
		l8.458-8.458L6.656,15.49z"/>
	
		<linearGradient id="SVGID_4_" gradientUnits="userSpaceOnUse" x1="496.1641" y1="-449.4574" x2="486.5127" y2="-436.7421" gradientTransform="matrix(0.7071 0.7071 -0.7071 0.7071 -648.7468 -6.0613)">
		<stop  offset="0" style="stop-color:#FF4521"/>
		<stop  offset="0.3411" style="stop-color:#D43E65"/>
		<stop  offset="0.7935" style="stop-color:#9F36B9"/>
		<stop  offset="1" style="stop-color:#8A33DB"/>
	</linearGradient>
	<path fill="url(#SVGID_4_)" d="M6.643,32.392c0.219,0.075,0.495,0.04,0.794-0.125l10.321-5.676l-2.657-2.657L6.643,32.392z"/>
</g>
<g>
	<g>
		<path fill="#FFFFFF" d="M25.849,8.962c0-1.624,1.206-2.668,2.707-2.668c1.005,0,1.663,0.479,2.073,1.067l-0.735,0.426
			c-0.278-0.387-0.766-0.688-1.338-0.688c-1.021,0-1.779,0.773-1.779,1.864c0,1.075,0.758,1.864,1.779,1.864
			c0.526,0,0.99-0.24,1.222-0.464V9.565h-1.547V8.768h2.444v1.925c-0.502,0.565-1.23,0.944-2.119,0.944
			C27.056,11.637,25.849,10.578,25.849,8.962z"/>
		<path fill="#FFFFFF" d="M31.794,11.537V6.379h3.534v0.797h-2.629v1.33h2.576v0.796h-2.576v1.439h2.629v0.796H31.794z"/>
		<path fill="#FFFFFF" d="M37.832,11.537V7.175H36.27V6.379h4.029v0.797h-1.562v4.361H37.832z"/>
		<path fill="#FFFFFF" d="M43.444,11.537V6.379h0.904v5.158H43.444z"/>
		<path fill="#FFFFFF" d="M46.868,11.537V7.175h-1.562V6.379h4.029v0.797h-1.562v4.361H46.868z"/>
		<path fill="#FFFFFF" d="M52.256,8.962c0-1.539,1.09-2.668,2.637-2.668c1.539,0,2.637,1.129,2.637,2.668
			c0,1.539-1.098,2.668-2.637,2.668C53.346,11.63,52.256,10.501,52.256,8.962z M56.602,8.962c0-1.067-0.673-1.864-1.709-1.864
			c-1.044,0-1.709,0.796-1.709,1.864c0,1.059,0.665,1.864,1.709,1.864C55.929,10.825,56.602,10.021,56.602,8.962z"/>
		<path fill="#FFFFFF" d="M62.183,11.537l-2.691-3.689v3.689h-0.904V6.379h0.928l2.637,3.573V6.379h0.905v5.158H62.183z"/>
	</g>
</g>
</svg>
