<?xml version="1.0" encoding="utf-8"?>
<!-- Generator: Adobe Illustrator 17.0.0, SVG Export Plug-In . SVG Version: 6.00 Build 0)  -->
<!DOCTYPE svg PUBLIC "-//W3C//DTD SVG 1.1//EN" "http://www.w3.org/Graphics/SVG/1.1/DTD/svg11.dtd">
<svg version="1.1" id="Layer_1" xmlns="http://www.w3.org/2000/svg" xmlns:xlink="http://www.w3.org/1999/xlink" x="0px" y="0px"
	 width="80px" height="15px" viewBox="0 0 80 15" enable-background="new 0 0 80 15" xml:space="preserve">
<path fill="#DE4F3D" d="M63,8.079C63,11.349,60.766,14,58.01,14H22.99C20.234,14,18,11.349,18,8.079V8.056
	C18,4.786,20.234,2,22.99,2h35.02C60.766,2,63,4.786,63,8.056V8.079z"/>
<text transform="matrix(1 0 0 1 32.2435 11.5404)" fill="#FFFFFF" font-family="'TFFFranklinGothicDemi'" font-size="9.6785">YOU</text>
<g>
	<path fill="#DE4F3D" d="M5.183,9.399C5.061,9.105,5.2,8.768,5.494,8.646c0.072-0.03,0.147-0.044,0.221-0.044
		c0.226,0,0.44,0.134,0.532,0.355c0.533,1.283,1.852,2.111,3.362,2.111c1.475,0,2.787-0.829,3.342-2.113
		c0.126-0.292,0.465-0.426,0.757-0.3c0.292,0.126,0.426,0.465,0.3,0.757c-0.737,1.705-2.464,2.807-4.399,2.807
		C7.632,12.22,5.895,11.112,5.183,9.399z"/>
	<path fill="#DE4F3D" d="M15.215,4.533c0,1.393-1.134,2.526-2.526,2.526c-1.362,0-2.473-1.084-2.521-2.434H8.998
		C8.953,5.978,7.84,7.066,6.476,7.066c-1.393,0-2.526-1.133-2.526-2.526c0-0.021,0.003-0.042,0.003-0.063L2.028,3.608
		c0.073-0.15,0.2-0.404,0.302-0.556l1.723,0.778c0.308-1.048,1.277-1.815,2.422-1.815c1.205,0,2.214,0.849,2.465,1.979h1.281
		c0.248-1.134,1.259-1.987,2.467-1.987c1.141,0,2.106,0.761,2.419,1.801l1.746-0.788c0.003,0.01,0.006,0.02,0.012,0.029
		c0.095,0.142,0.214,0.375,0.289,0.528l-1.943,0.877C15.212,4.481,15.215,4.507,15.215,4.533z"/>
</g>
<g>
	<g>
		<path fill="#FFFFFF" d="M66.962,9.785c-0.122-0.293,0.017-0.63,0.311-0.752c0.072-0.03,0.147-0.044,0.221-0.044
			c0.226,0,0.44,0.134,0.532,0.355c0.533,1.283,1.852,2.111,3.362,2.111c1.475,0,2.787-0.829,3.342-2.113
			c0.126-0.292,0.465-0.426,0.757-0.3c0.292,0.126,0.426,0.465,0.3,0.757c-0.737,1.705-2.464,2.807-4.399,2.807
			C69.411,12.606,67.674,11.499,66.962,9.785z"/>
		<path fill="#FFFFFF" d="M76.995,4.92c0,1.393-1.134,2.526-2.526,2.526c-1.362,0-2.473-1.084-2.521-2.434h-1.169
			c-0.045,1.354-1.158,2.441-2.522,2.441c-1.393,0-2.526-1.133-2.526-2.526c0-0.021,0.003-0.042,0.003-0.063l-1.925-0.869
			c0.073-0.15,0.2-0.404,0.302-0.556l1.723,0.778c0.308-1.048,1.277-1.815,2.422-1.815c1.205,0,2.214,0.849,2.465,1.979h1.281
			c0.248-1.134,1.259-1.987,2.467-1.987c1.141,0,2.106,0.761,2.419,1.801l1.746-0.788c0.003,0.01,0.006,0.02,0.012,0.029
			c0.095,0.142,0.214,0.375,0.289,0.528L76.99,4.841C76.991,4.867,76.995,4.893,76.995,4.92z"/>
	</g>
</g>
</svg>
