<?xml version="1.0" encoding="utf-8"?>
<!-- Generator: Adobe Illustrator 17.0.0, SVG Export Plug-In . SVG Version: 6.00 Build 0)  -->
<!DOCTYPE svg PUBLIC "-//W3C//DTD SVG 1.1//EN" "http://www.w3.org/Graphics/SVG/1.1/DTD/svg11.dtd">
<svg version="1.1" id="Layer_1" xmlns="http://www.w3.org/2000/svg" xmlns:xlink="http://www.w3.org/1999/xlink" x="0px" y="0px"
	 width="70px" height="15px" viewBox="0 0 70 15" enable-background="new 0 0 70 15" xml:space="preserve">
<path fill="#E25D8A" d="M64.005,7.5c0,3.59-2.91,6.5-6.5,6.5h-45c-3.59,0-6.5-2.91-6.5-6.5l0,0c0-3.59,2.91-6.5,6.5-6.5h45
	C61.095,1,64.005,3.91,64.005,7.5L64.005,7.5z"/>
<text transform="matrix(1 0 0 1 14.6975 10.6445)" fill="#FFFFFF" font-family="'TFFFranklinGothicDemi'" font-size="9.1529">CLEARED</text>
<polygon fill="#FFFFFF" points="57.253,2.761 57.262,3.856 58.169,4.47 57.13,4.817 56.827,5.87 56.176,4.989 55.081,5.026 
	55.718,4.134 55.344,3.104 56.389,3.434 "/>
<polygon fill="#FFDE17" points="67.911,2.596 67.922,3.956 69.049,4.718 67.759,5.149 67.382,6.456 66.574,5.362 65.214,5.408 
	66.005,4.301 65.541,3.022 66.838,3.432 "/>
<polygon fill="#E6E7E8" points="67.821,8.519 67.84,10.83 69.755,12.125 67.562,12.858 66.923,15.079 65.549,13.22 63.238,13.298 
	64.582,11.417 63.793,9.244 65.998,9.94 "/>
<polygon fill="#FFDE17" points="4.821,0.519 4.84,2.83 6.755,4.125 4.562,4.858 3.923,7.079 2.549,5.22 0.238,5.298 1.582,3.417 
	0.793,1.244 2.998,1.94 "/>
<polygon fill="#FFF200" points="62.177,5.729 61.468,7.088 62.186,8.442 60.674,8.188 59.608,9.289 59.383,7.772 58.006,7.098 
	59.379,6.416 59.594,4.898 60.668,5.993 "/>
<polygon fill="#E6E7E8" points="5.791,10.201 5.303,11.181 5.834,12.14 4.75,11.978 4.003,12.779 3.822,11.699 2.829,11.236 
	3.8,10.729 3.934,9.642 4.716,10.41 "/>
<polygon fill="#E6E7E8" points="12.791,3.201 12.303,4.181 12.834,5.14 11.75,4.978 11.003,5.779 10.822,4.699 9.829,4.236 
	10.8,3.729 10.934,2.642 11.716,3.41 "/>
<polygon fill="#E6E7E8" points="10.969,8.74 9.873,8.763 9.246,9.77 8.86,8.828 7.804,8.537 8.702,7.783 8.664,6.643 9.57,7.245 
	10.598,6.847 10.283,7.89 "/>
<polygon fill="#E6E7E8" points="64.983,1.535 64.26,2.358 64.527,3.42 63.521,2.987 62.594,3.569 62.695,2.479 61.854,1.777 
	62.923,1.536 63.331,0.519 63.89,1.462 "/>
<polygon fill="#FFF200" points="15.044,10.714 14.222,11.439 14.354,12.526 13.411,11.969 12.417,12.43 12.655,11.361 11.91,10.559 
	13,10.455 13.533,9.498 13.969,10.503 "/>
</svg>
